<?xml version="1.0" standalone="no"?>
<!DOCTYPE svg PUBLIC "-//W3C//DTD SVG 20010904//EN"
 "http://www.w3.org/TR/2001/REC-SVG-20010904/DTD/svg10.dtd">
<svg version="1.0" xmlns="http://www.w3.org/2000/svg"
 width="661.000000pt" height="661.000000pt" viewBox="0 0 661.000000 661.000000"
 preserveAspectRatio="xMidYMid meet">
<metadata>
Created by potrace 1.14, written by Peter Selinger 2001-2017
</metadata>
<g transform="translate(0.000000,661.000000) scale(0.100000,-0.100000)"
fill="#000000" stroke="none">
<path d="M2695 6034 c-119 -17 -326 -77 -333 -95 -2 -5 -12 -9 -22 -9 -10 0
-25 -6 -32 -14 -8 -7 -24 -17 -36 -20 -12 -4 -22 -12 -22 -17 0 -5 -5 -9 -11
-9 -27 0 -212 -145 -311 -243 -76 -75 -104 -107 -150 -169 -15 -20 -34 -42
-42 -50 -24 -24 -187 -268 -179 -268 5 0 3 -4 -3 -8 -6 -4 -26 -34 -44 -67
-18 -33 -40 -71 -49 -84 -9 -14 -32 -63 -52 -110 l-35 -86 -60 -7 c-112 -14
-189 -46 -254 -104 -71 -64 -77 -88 -56 -215 3 -21 -4 -35 -31 -60 -45 -44
-133 -154 -133 -167 0 -5 -7 -13 -16 -16 -9 -4 -14 -9 -11 -12 3 -4 1 -12 -6
-20 -30 -33 -37 -46 -80 -135 -73 -151 -124 -310 -162 -506 -3 -16 -12 -59
-19 -98 -8 -38 -17 -95 -21 -125 -4 -30 -8 -64 -10 -75 -1 -11 -5 -51 -9 -90
-7 -76 -13 -135 -22 -205 -3 -25 -5 -62 -4 -83 0 -27 -5 -43 -23 -60 -60 -56
-75 -115 -92 -382 -3 -44 -7 -93 -9 -110 -3 -16 -7 -49 -10 -73 -3 -24 -13
-82 -22 -130 -9 -48 -18 -95 -19 -104 -1 -10 -4 -21 -8 -24 -4 -4 -7 -18 -7
-32 0 -13 -7 -50 -15 -81 -12 -48 -60 -333 -80 -481 -7 -49 -42 -266 -51 -315
-13 -71 -28 -130 -74 -290 -26 -93 -50 -181 -52 -195 l-3 -25 2840 -2 c1562
-2 2845 1 2850 5 16 11 106 152 98 152 -5 0 -3 4 2 8 14 10 85 99 85 106 0 4
33 40 73 81 71 73 118 109 180 141 17 9 34 20 37 23 3 3 31 19 63 34 40 19 57
33 57 47 0 24 -94 89 -165 115 -27 10 -74 29 -103 42 -29 12 -57 23 -62 23 -6
0 -18 4 -28 9 -35 19 -93 42 -113 46 -12 2 -26 8 -33 13 -14 11 -88 37 -98 34
-5 -1 -8 3 -8 8 0 6 -6 10 -13 10 -12 0 -122 43 -205 81 -48 22 -47 30 8 74
35 28 56 50 67 69 6 12 42 22 122 35 84 15 123 26 154 47 62 41 132 119 162
179 l26 54 -30 54 c-16 29 -26 58 -23 63 4 6 30 24 57 40 28 15 56 34 63 41 7
7 16 13 20 13 20 1 110 100 122 134 24 74 -12 216 -59 231 -10 3 -18 11 -18
18 0 25 -35 185 -57 262 -20 69 -69 179 -87 195 -3 3 -19 25 -36 50 -45 65
-122 148 -192 205 -33 28 -61 55 -61 61 0 7 26 24 58 40 31 16 59 31 62 34 3
3 17 12 31 20 53 30 163 122 213 178 12 13 64 53 117 88 53 36 108 75 123 89
14 13 26 22 26 19 0 -3 7 1 15 10 8 8 25 23 37 33 13 10 35 33 51 51 15 19 27
30 27 25 0 -4 10 8 21 27 12 19 26 38 31 41 5 3 9 8 7 10 -1 2 8 24 20 48 13
24 25 53 28 65 2 11 9 39 15 61 14 59 18 232 6 290 -5 28 -12 60 -14 72 -7 37
-53 53 -149 53 -47 0 -85 4 -85 9 0 10 -53 65 -86 91 -54 42 -113 80 -123 80
-6 0 -11 5 -11 10 0 40 -182 203 -270 242 -19 9 -60 27 -90 40 -30 14 -83 36
-117 49 -70 27 -68 24 -123 192 -65 202 -120 296 -246 424 -75 76 -173 143
-210 143 -8 0 -14 4 -14 9 0 5 -10 11 -22 14 -13 2 -50 12 -83 21 -263 70
-599 4 -998 -195 -86 -43 -126 -59 -143 -55 -13 4 -24 11 -24 16 0 6 -5 10
-11 10 -6 0 -28 12 -48 28 -94 71 -373 203 -491 232 -70 17 -173 41 -195 45
-129 22 -246 25 -350 9z"/>
</g>
</svg>
